<mxfile host="app.diagrams.net" modified="2022-02-24T10:40:50.626Z" agent="5.0 (Windows NT 10.0; Win64; x64) AppleWebKit/537.36 (KHTML, like Gecko) Chrome/98.0.4758.102 Safari/537.36" etag="6sduSH7dh7k1xZxoRYlu" version="16.5.3" type="github">
  <diagram id="QepbIq7wOoOVW_KudbNy" name="第 1 页">
    <mxGraphModel dx="1038" dy="539" grid="1" gridSize="10" guides="1" tooltips="1" connect="1" arrows="1" fold="1" page="1" pageScale="1" pageWidth="827" pageHeight="1169" math="0" shadow="0">
      <root>
        <mxCell id="0" />
        <mxCell id="1" parent="0" />
        <mxCell id="NMGuCi4fQoYn2M6iGxxo-1" value="" style="ellipse;whiteSpace=wrap;html=1;aspect=fixed;" vertex="1" parent="1">
          <mxGeometry x="250" y="150" width="180" height="180" as="geometry" />
        </mxCell>
        <mxCell id="NMGuCi4fQoYn2M6iGxxo-2" value="&lt;font style=&quot;font-size: 19px&quot;&gt;planet 服务器&lt;/font&gt;" style="text;html=1;strokeColor=none;fillColor=none;align=center;verticalAlign=middle;whiteSpace=wrap;rounded=0;" vertex="1" parent="1">
          <mxGeometry x="310" y="225" width="60" height="30" as="geometry" />
        </mxCell>
        <mxCell id="NMGuCi4fQoYn2M6iGxxo-3" value="&lt;font style=&quot;font-size: 15px&quot;&gt;官方维护，位于国外&lt;/font&gt;" style="ellipse;shape=cloud;whiteSpace=wrap;html=1;fontSize=19;" vertex="1" parent="1">
          <mxGeometry x="350" y="60" width="200" height="100" as="geometry" />
        </mxCell>
        <mxCell id="NMGuCi4fQoYn2M6iGxxo-5" value="" style="rounded=1;whiteSpace=wrap;html=1;fontSize=15;" vertex="1" parent="1">
          <mxGeometry x="20" y="400" width="250" height="160" as="geometry" />
        </mxCell>
        <mxCell id="NMGuCi4fQoYn2M6iGxxo-6" value="网络A" style="text;html=1;strokeColor=none;fillColor=none;align=center;verticalAlign=middle;whiteSpace=wrap;rounded=0;fontSize=15;" vertex="1" parent="1">
          <mxGeometry x="115" y="360" width="60" height="30" as="geometry" />
        </mxCell>
        <mxCell id="NMGuCi4fQoYn2M6iGxxo-7" value="台式机" style="ellipse;whiteSpace=wrap;html=1;aspect=fixed;fontSize=15;" vertex="1" parent="1">
          <mxGeometry x="115" y="450" width="60" height="60" as="geometry" />
        </mxCell>
        <mxCell id="NMGuCi4fQoYn2M6iGxxo-8" value="" style="rounded=1;whiteSpace=wrap;html=1;fontSize=15;" vertex="1" parent="1">
          <mxGeometry x="510" y="400" width="250" height="160" as="geometry" />
        </mxCell>
        <mxCell id="NMGuCi4fQoYn2M6iGxxo-9" value="网络B" style="text;html=1;strokeColor=none;fillColor=none;align=center;verticalAlign=middle;whiteSpace=wrap;rounded=0;fontSize=15;" vertex="1" parent="1">
          <mxGeometry x="605" y="360" width="60" height="30" as="geometry" />
        </mxCell>
        <mxCell id="NMGuCi4fQoYn2M6iGxxo-10" value="轻薄本" style="ellipse;whiteSpace=wrap;html=1;aspect=fixed;fontSize=15;" vertex="1" parent="1">
          <mxGeometry x="605" y="450" width="60" height="60" as="geometry" />
        </mxCell>
        <mxCell id="NMGuCi4fQoYn2M6iGxxo-11" value="" style="curved=1;endArrow=classic;html=1;rounded=0;fontSize=15;exitX=0.677;exitY=-0.026;exitDx=0;exitDy=0;exitPerimeter=0;" edge="1" parent="1" source="NMGuCi4fQoYn2M6iGxxo-5">
          <mxGeometry width="50" height="50" relative="1" as="geometry">
            <mxPoint x="200" y="380" as="sourcePoint" />
            <mxPoint x="570" y="390" as="targetPoint" />
            <Array as="points">
              <mxPoint x="190" y="390" />
              <mxPoint x="380" y="320" />
            </Array>
          </mxGeometry>
        </mxCell>
        <mxCell id="NMGuCi4fQoYn2M6iGxxo-12" value="&lt;font style=&quot;font-size: 12px&quot;&gt;planet服务器帮忙找到两个网络之间的路径&lt;/font&gt;" style="text;html=1;strokeColor=none;fillColor=none;align=center;verticalAlign=middle;whiteSpace=wrap;rounded=0;fontSize=15;" vertex="1" parent="1">
          <mxGeometry x="240" y="360" width="290" height="30" as="geometry" />
        </mxCell>
        <mxCell id="NMGuCi4fQoYn2M6iGxxo-13" value="leaf节点" style="text;html=1;strokeColor=none;fillColor=none;align=center;verticalAlign=middle;whiteSpace=wrap;rounded=0;fontSize=12;" vertex="1" parent="1">
          <mxGeometry x="55" y="510" width="60" height="30" as="geometry" />
        </mxCell>
        <mxCell id="NMGuCi4fQoYn2M6iGxxo-14" value="leaf节点" style="text;html=1;strokeColor=none;fillColor=none;align=center;verticalAlign=middle;whiteSpace=wrap;rounded=0;fontSize=12;" vertex="1" parent="1">
          <mxGeometry x="665" y="510" width="60" height="30" as="geometry" />
        </mxCell>
        <mxCell id="NMGuCi4fQoYn2M6iGxxo-15" value="&lt;p style=&quot;line-height: 1.2&quot;&gt;&lt;br&gt;&lt;/p&gt;" style="ellipse;shape=cloud;whiteSpace=wrap;html=1;fontSize=12;" vertex="1" parent="1">
          <mxGeometry x="485" y="210" width="255" height="125" as="geometry" />
        </mxCell>
        <mxCell id="NMGuCi4fQoYn2M6iGxxo-16" value="&lt;font style=&quot;font-size: 14px&quot;&gt;planet找路径时是从国外开始找，网络路径会很长，且会过墙&lt;/font&gt;" style="text;html=1;strokeColor=none;fillColor=none;align=center;verticalAlign=middle;whiteSpace=wrap;rounded=0;fontSize=12;" vertex="1" parent="1">
          <mxGeometry x="550" y="257.5" width="150" height="30" as="geometry" />
        </mxCell>
        <mxCell id="NMGuCi4fQoYn2M6iGxxo-17" value="moon服务器" style="ellipse;whiteSpace=wrap;html=1;aspect=fixed;fontSize=14;" vertex="1" parent="1">
          <mxGeometry x="340" y="606" width="100" height="100" as="geometry" />
        </mxCell>
        <mxCell id="NMGuCi4fQoYn2M6iGxxo-18" value="" style="ellipse;shape=cloud;whiteSpace=wrap;html=1;fontSize=14;" vertex="1" parent="1">
          <mxGeometry x="460" y="706" width="120" height="80" as="geometry" />
        </mxCell>
        <mxCell id="NMGuCi4fQoYn2M6iGxxo-19" value="自建，在国内" style="text;html=1;strokeColor=none;fillColor=none;align=center;verticalAlign=middle;whiteSpace=wrap;rounded=0;fontSize=14;" vertex="1" parent="1">
          <mxGeometry x="475" y="731" width="90" height="30" as="geometry" />
        </mxCell>
        <mxCell id="NMGuCi4fQoYn2M6iGxxo-20" value="" style="curved=1;endArrow=classic;html=1;rounded=0;fontSize=14;" edge="1" parent="1">
          <mxGeometry width="50" height="50" relative="1" as="geometry">
            <mxPoint x="220" y="570" as="sourcePoint" />
            <mxPoint x="590" y="570" as="targetPoint" />
            <Array as="points">
              <mxPoint x="380" y="610" />
            </Array>
          </mxGeometry>
        </mxCell>
        <mxCell id="NMGuCi4fQoYn2M6iGxxo-22" value="&lt;p style=&quot;line-height: 1.2&quot;&gt;&lt;br&gt;&lt;/p&gt;" style="ellipse;shape=cloud;whiteSpace=wrap;html=1;fontSize=12;" vertex="1" parent="1">
          <mxGeometry x="55" y="683.5" width="255" height="125" as="geometry" />
        </mxCell>
        <mxCell id="NMGuCi4fQoYn2M6iGxxo-23" value="&lt;font style=&quot;font-size: 14px&quot;&gt;moon找路径时是从国内，网络路径相对较短，且不会过墙&lt;/font&gt;" style="text;html=1;strokeColor=none;fillColor=none;align=center;verticalAlign=middle;whiteSpace=wrap;rounded=0;fontSize=12;" vertex="1" parent="1">
          <mxGeometry x="115" y="740" width="150" height="30" as="geometry" />
        </mxCell>
        <mxCell id="NMGuCi4fQoYn2M6iGxxo-24" value="" style="shape=flexArrow;endArrow=classic;startArrow=classic;html=1;rounded=0;fontSize=14;" edge="1" parent="1">
          <mxGeometry width="100" height="100" relative="1" as="geometry">
            <mxPoint x="280" y="480" as="sourcePoint" />
            <mxPoint x="490" y="480" as="targetPoint" />
          </mxGeometry>
        </mxCell>
        <mxCell id="NMGuCi4fQoYn2M6iGxxo-25" value="找到网络路径后" style="text;html=1;strokeColor=none;fillColor=none;align=center;verticalAlign=middle;whiteSpace=wrap;rounded=0;fontSize=14;" vertex="1" parent="1">
          <mxGeometry x="340" y="440" width="100" height="30" as="geometry" />
        </mxCell>
        <mxCell id="NMGuCi4fQoYn2M6iGxxo-26" value="建立 P2P VPN" style="text;html=1;strokeColor=none;fillColor=none;align=center;verticalAlign=middle;whiteSpace=wrap;rounded=0;fontSize=14;" vertex="1" parent="1">
          <mxGeometry x="345" y="490" width="105" height="30" as="geometry" />
        </mxCell>
      </root>
    </mxGraphModel>
  </diagram>
</mxfile>
